<svg width="16" height="16" viewBox="0 0 16 16" fill="none" xmlns="http://www.w3.org/2000/svg">
<g clip-path="url(#clip0_2_153)">
<path d="M15.1 14.116L10.4625 9.47855C11.1821 8.54819 11.5714 7.41069 11.5714 6.21426C11.5714 4.78212 11.0125 3.43926 10.0018 2.42676C8.99107 1.41426 7.64464 0.857117 6.21428 0.857117C4.78393 0.857117 3.4375 1.41605 2.42678 2.42676C1.41428 3.43747 0.85714 4.78212 0.85714 6.21426C0.85714 7.64462 1.41607 8.99104 2.42678 10.0018C3.4375 11.0143 4.78214 11.5714 6.21428 11.5714C7.41071 11.5714 8.54643 11.1821 9.47678 10.4643L14.1143 15.1C14.1279 15.1136 14.144 15.1244 14.1618 15.1317C14.1796 15.1391 14.1986 15.1429 14.2179 15.1429C14.2371 15.1429 14.2561 15.1391 14.2739 15.1317C14.2917 15.1244 14.3078 15.1136 14.3214 15.1L15.1 14.3232C15.1136 14.3096 15.1244 14.2934 15.1318 14.2757C15.1391 14.2579 15.1429 14.2389 15.1429 14.2196C15.1429 14.2004 15.1391 14.1813 15.1318 14.1636C15.1244 14.1458 15.1136 14.1296 15.1 14.116ZM9.04285 9.04283C8.28571 9.79819 7.28214 10.2143 6.21428 10.2143C5.14643 10.2143 4.14285 9.79819 3.38571 9.04283C2.63035 8.28569 2.21428 7.28212 2.21428 6.21426C2.21428 5.1464 2.63035 4.14105 3.38571 3.38569C4.14285 2.63033 5.14643 2.21426 6.21428 2.21426C7.28214 2.21426 8.2875 2.62855 9.04285 3.38569C9.79821 4.14283 10.2143 5.1464 10.2143 6.21426C10.2143 7.28212 9.79821 8.28747 9.04285 9.04283Z" fill="#8F8F90"/>
</g>
<defs>
<clipPath id="clip0_2_153">
<rect width="16" height="16" fill="white"/>
</clipPath>
</defs>
</svg>
